HIERARCHY
ROOT mixamorig:Hips
{
	OFFSET -0.000008 104.274872 1.554316
	CHANNELS 6 Xposition Yposition Zposition Xrotation Yrotation Zrotation
	JOINT mixamorig:Spine
	{
		OFFSET -0.000005 10.181595 0.131519
		CHANNELS 6 Xposition Yposition Zposition Xrotation Yrotation Zrotation
		JOINT mixamorig:Spine1
		{
			OFFSET -0.000000 9.893959 -1.470707
			CHANNELS 6 Xposition Yposition Zposition Xrotation Yrotation Zrotation
			JOINT mixamorig:Spine2
			{
				OFFSET -0.000000 9.220757 -1.370641
				CHANNELS 6 Xposition Yposition Zposition Xrotation Yrotation Zrotation
				JOINT mixamorig:Neck
				{
					OFFSET 0.000001 16.740417 -2.049036
					CHANNELS 6 Xposition Yposition Zposition Xrotation Yrotation Zrotation
					JOINT mixamorig:Head
					{
						OFFSET 0.000000 9.617874 1.685006
						CHANNELS 6 Xposition Yposition Zposition Xrotation Yrotation Zrotation
						JOINT mixamorig:HeadTop_End
						{
							OFFSET 0.000002 22.037354 7.501101
							CHANNELS 6 Xposition Yposition Zposition Xrotation Yrotation Zrotation
							End Site
							{
								OFFSET 0.000168 2310.654297 -282.823242
							}
						}
					}
				}
				JOINT mixamorig:RightShoulder
				{
					OFFSET -4.569970 11.014908 -2.160885
					CHANNELS 6 Xposition Yposition Zposition Xrotation Yrotation Zrotation
					JOINT mixamorig:RightArm
					{
						OFFSET -10.592851 -0.524811 -2.232101
						CHANNELS 6 Xposition Yposition Zposition Xrotation Yrotation Zrotation
						JOINT mixamorig:RightForeArm
						{
							OFFSET -27.841511 0.000031 -0.000004
							CHANNELS 6 Xposition Yposition Zposition Xrotation Yrotation Zrotation
							JOINT mixamorig:RightHand
							{
								OFFSET -28.328831 -0.000015 0.000015
								CHANNELS 6 Xposition Yposition Zposition Xrotation Yrotation Zrotation
								JOINT mixamorig:RightHandThumb1
								{
									OFFSET -2.464806 -1.573990 2.681852
									CHANNELS 6 Xposition Yposition Zposition Xrotation Yrotation Zrotation
									JOINT mixamorig:RightHandThumb2
									{
										OFFSET -3.215179 -1.872803 1.924282
										CHANNELS 6 Xposition Yposition Zposition Xrotation Yrotation Zrotation
										JOINT mixamorig:RightHandThumb3
										{
											OFFSET -2.654831 -1.527969 1.512609
											CHANNELS 6 Xposition Yposition Zposition Xrotation Yrotation Zrotation
											JOINT mixamorig:RightHandThumb4
											{
												OFFSET -2.018814 -1.152008 1.108052
												CHANNELS 6 Xposition Yposition Zposition Xrotation Yrotation Zrotation
												End Site
												{
													OFFSET -188.809540 -114.533607 132.431396
												}
											}
										}
									}
								}
								JOINT mixamorig:RightHandIndex1
								{
									OFFSET -9.108284 -0.517868 2.259835
									CHANNELS 6 Xposition Yposition Zposition Xrotation Yrotation Zrotation
									JOINT mixamorig:RightHandIndex2
									{
										OFFSET -3.699989 0.000000 0.001215
										CHANNELS 6 Xposition Yposition Zposition Xrotation Yrotation Zrotation
										JOINT mixamorig:RightHandIndex3
										{
											OFFSET -2.850006 0.000031 -0.000522
											CHANNELS 6 Xposition Yposition Zposition Xrotation Yrotation Zrotation
											JOINT mixamorig:RightHandIndex4
											{
												OFFSET -2.772186 -0.000015 -0.000020
												CHANNELS 6 Xposition Yposition Zposition Xrotation Yrotation Zrotation
												End Site
												{
													OFFSET -277.218445 0.000000 -0.050231
												}
											}
										}
									}
								}
								JOINT mixamorig:RightHandMiddle1
								{
									OFFSET -9.532516 -0.000031 -0.000023
									CHANNELS 6 Xposition Yposition Zposition Xrotation Yrotation Zrotation
									JOINT mixamorig:RightHandMiddle2
									{
										OFFSET -3.700005 -0.000015 0.003713
										CHANNELS 6 Xposition Yposition Zposition Xrotation Yrotation Zrotation
										JOINT mixamorig:RightHandMiddle3
										{
											OFFSET -2.949974 0.000015 -0.002054
											CHANNELS 6 Xposition Yposition Zposition Xrotation Yrotation Zrotation
											JOINT mixamorig:RightHandMiddle4
											{
												OFFSET -2.946640 0.000000 -0.000156
												CHANNELS 6 Xposition Yposition Zposition Xrotation Yrotation Zrotation
												End Site
												{
													OFFSET -294.664337 0.000000 -0.113670
												}
											}
										}
									}
								}
								JOINT mixamorig:RightHandRing1
								{
									OFFSET -9.103600 -0.043076 -1.865134
									CHANNELS 6 Xposition Yposition Zposition Xrotation Yrotation Zrotation
									JOINT mixamorig:RightHandRing2
									{
										OFFSET -3.379288 0.000000 -0.001055
										CHANNELS 6 Xposition Yposition Zposition Xrotation Yrotation Zrotation
										JOINT mixamorig:RightHandRing3
										{
											OFFSET -2.889687 -0.000015 0.000379
											CHANNELS 6 Xposition Yposition Zposition Xrotation Yrotation Zrotation
											JOINT mixamorig:RightHandRing4
											{
												OFFSET -2.638809 -0.000015 0.000941
												CHANNELS 6 Xposition Yposition Zposition Xrotation Yrotation Zrotation
												End Site
												{
													OFFSET -263.880371 0.000000 0.516020
												}
											}
										}
									}
								}
								JOINT mixamorig:RightHandPinky1
								{
									OFFSET -8.076683 -0.486710 -3.806280
									CHANNELS 6 Xposition Yposition Zposition Xrotation Yrotation Zrotation
									JOINT mixamorig:RightHandPinky2
									{
										OFFSET -3.600014 -0.000015 -0.003747
										CHANNELS 6 Xposition Yposition Zposition Xrotation Yrotation Zrotation
										JOINT mixamorig:RightHandPinky3
										{
											OFFSET -2.099983 0.000000 -0.005739
											CHANNELS 6 Xposition Yposition Zposition Xrotation Yrotation Zrotation
											JOINT mixamorig:RightHandPinky4
											{
												OFFSET -2.115768 -0.000031 -0.003680
												CHANNELS 6 Xposition Yposition Zposition Xrotation Yrotation Zrotation
												End Site
												{
													OFFSET -211.577087 0.000000 -0.350686
												}
											}
										}
									}
								}
							}
						}
					}
				}
				JOINT mixamorig:LeftShoulder
				{
					OFFSET 4.570447 11.014725 -2.160855
					CHANNELS 6 Xposition Yposition Zposition Xrotation Yrotation Zrotation
					JOINT mixamorig:LeftArm
					{
						OFFSET 10.592371 -0.524597 -2.232119
						CHANNELS 6 Xposition Yposition Zposition Xrotation Yrotation Zrotation
						JOINT mixamorig:LeftForeArm
						{
							OFFSET 27.841532 -0.000031 0.000026
							CHANNELS 6 Xposition Yposition Zposition Xrotation Yrotation Zrotation
							JOINT mixamorig:LeftHand
							{
								OFFSET 28.328846 -0.000061 0.000022
								CHANNELS 6 Xposition Yposition Zposition Xrotation Yrotation Zrotation
								JOINT mixamorig:LeftHandThumb1
								{
									OFFSET 2.466141 -1.576172 2.681732
									CHANNELS 6 Xposition Yposition Zposition Xrotation Yrotation Zrotation
									JOINT mixamorig:LeftHandThumb2
									{
										OFFSET 3.217812 -1.872070 1.916482
										CHANNELS 6 Xposition Yposition Zposition Xrotation Yrotation Zrotation
										JOINT mixamorig:LeftHandThumb3
										{
											OFFSET 2.656029 -1.528778 1.514513
											CHANNELS 6 Xposition Yposition Zposition Xrotation Yrotation Zrotation
											JOINT mixamorig:LeftHandThumb4
											{
												OFFSET 2.020889 -1.154053 1.115139
												CHANNELS 6 Xposition Yposition Zposition Xrotation Yrotation Zrotation
												End Site
												{
													OFFSET 190.885437 -115.081749 130.048782
												}
											}
										}
									}
								}
								JOINT mixamorig:LeftHandIndex1
								{
									OFFSET 9.109314 -0.518021 2.259871
									CHANNELS 6 Xposition Yposition Zposition Xrotation Yrotation Zrotation
									JOINT mixamorig:LeftHandIndex2
									{
										OFFSET 3.699989 0.000000 -0.000322
										CHANNELS 6 Xposition Yposition Zposition Xrotation Yrotation Zrotation
										JOINT mixamorig:LeftHandIndex3
										{
											OFFSET 2.850006 0.000000 0.000352
											CHANNELS 6 Xposition Yposition Zposition Xrotation Yrotation Zrotation
											JOINT mixamorig:LeftHandIndex4
											{
												OFFSET 2.774864 -0.000031 -0.000027
												CHANNELS 6 Xposition Yposition Zposition Xrotation Yrotation Zrotation
												End Site
												{
													OFFSET 277.486267 0.000000 -0.009857
												}
											}
										}
									}
								}
								JOINT mixamorig:LeftHandMiddle1
								{
									OFFSET 9.533394 0.000061 0.000044
									CHANNELS 6 Xposition Yposition Zposition Xrotation Yrotation Zrotation
									JOINT mixamorig:LeftHandMiddle2
									{
										OFFSET 3.699989 -0.000015 -0.000231
										CHANNELS 6 Xposition Yposition Zposition Xrotation Yrotation Zrotation
										JOINT mixamorig:LeftHandMiddle3
										{
											OFFSET 2.949997 -0.000015 -0.000059
											CHANNELS 6 Xposition Yposition Zposition Xrotation Yrotation Zrotation
											JOINT mixamorig:LeftHandMiddle4
											{
												OFFSET 2.952896 0.000031 0.000063
												CHANNELS 6 Xposition Yposition Zposition Xrotation Yrotation Zrotation
												End Site
												{
													OFFSET 295.289337 0.000000 0.022810
												}
											}
										}
									}
								}
								JOINT mixamorig:LeftHandRing1
								{
									OFFSET 9.104523 -0.042999 -1.865074
									CHANNELS 6 Xposition Yposition Zposition Xrotation Yrotation Zrotation
									JOINT mixamorig:LeftHandRing2
									{
										OFFSET 3.150009 -0.000031 0.000043
										CHANNELS 6 Xposition Yposition Zposition Xrotation Yrotation Zrotation
										JOINT mixamorig:LeftHandRing3
										{
											OFFSET 2.949982 -0.000015 0.000040
											CHANNELS 6 Xposition Yposition Zposition Xrotation Yrotation Zrotation
											JOINT mixamorig:LeftHandRing4
											{
												OFFSET 2.644348 0.000000 0.000057
												CHANNELS 6 Xposition Yposition Zposition Xrotation Yrotation Zrotation
												End Site
												{
													OFFSET 264.434631 0.000000 0.012105
												}
											}
										}
									}
								}
								JOINT mixamorig:LeftHandPinky1
								{
									OFFSET 8.077789 -0.486847 -3.806259
									CHANNELS 6 Xposition Yposition Zposition Xrotation Yrotation Zrotation
									JOINT mixamorig:LeftHandPinky2
									{
										OFFSET 3.599953 0.000031 0.014727
										CHANNELS 6 Xposition Yposition Zposition Xrotation Yrotation Zrotation
										JOINT mixamorig:LeftHandPinky3
										{
											OFFSET 2.100021 0.000015 0.007705
											CHANNELS 6 Xposition Yposition Zposition Xrotation Yrotation Zrotation
											JOINT mixamorig:LeftHandPinky4
											{
												OFFSET 2.125504 0.000031 0.007517
												CHANNELS 6 Xposition Yposition Zposition Xrotation Yrotation Zrotation
												End Site
												{
													OFFSET 212.550781 0.000000 0.625752
												}
											}
										}
									}
								}
							}
						}
					}
				}
			}
		}
	}
	JOINT mixamorig:RightUpLeg
	{
		OFFSET -8.207787 -6.751648 -1.599560
		CHANNELS 6 Xposition Yposition Zposition Xrotation Yrotation Zrotation
		JOINT mixamorig:RightLeg
		{
			OFFSET -0.000002 -44.370117 0.345942
			CHANNELS 6 Xposition Yposition Zposition Xrotation Yrotation Zrotation
			JOINT mixamorig:RightFoot
			{
				OFFSET 0.000003 -44.423679 -3.043532
				CHANNELS 6 Xposition Yposition Zposition Xrotation Yrotation Zrotation
				JOINT mixamorig:RightToeBase
				{
					OFFSET -0.000002 -8.728671 10.710558
					CHANNELS 6 Xposition Yposition Zposition Xrotation Yrotation Zrotation
					JOINT mixamorig:RightToe_End
					{
						OFFSET -0.000001 -0.000679 9.278119
						CHANNELS 6 Xposition Yposition Zposition Xrotation Yrotation Zrotation
						End Site
						{
							OFFSET 0.000000 -0.067690 927.812134
						}
					}
				}
			}
		}
	}
	JOINT mixamorig:LeftUpLeg
	{
		OFFSET 8.207793 -6.751686 -1.599556
		CHANNELS 6 Xposition Yposition Zposition Xrotation Yrotation Zrotation
		JOINT mixamorig:LeftLeg
		{
			OFFSET -0.000004 -44.370014 0.346954
			CHANNELS 6 Xposition Yposition Zposition Xrotation Yrotation Zrotation
			JOINT mixamorig:LeftFoot
			{
				OFFSET -0.000001 -44.423672 -3.044401
				CHANNELS 6 Xposition Yposition Zposition Xrotation Yrotation Zrotation
				JOINT mixamorig:LeftToeBase
				{
					OFFSET -0.000002 -8.728669 10.710558
					CHANNELS 6 Xposition Yposition Zposition Xrotation Yrotation Zrotation
					JOINT mixamorig:LeftToe_End
					{
						OFFSET -0.000003 -0.000679 9.278133
						CHANNELS 6 Xposition Yposition Zposition Xrotation Yrotation Zrotation
						End Site
						{
							OFFSET 0.000000 -0.068021 927.813477
						}
					}
				}
			}
		}
	}
}
MOTION
Frames: 3
Frame Time: 0.033333
0.000006 104.270477 1.554256 0.000010 0.000003 -0.000113 -0.000005 10.181587 0.131522 0.000001 -0.000003 0.000084 -0.000000 9.893967 -1.470711 0.000001 0.000000 -0.000000 -0.000000 9.220802 -1.370642 0.000000 -0.000000 -0.000000 0.000001 16.740433 -2.049030 0.000000 -0.000000 -0.000000 0.000000 9.617859 1.685014 0.000000 0.000000 0.000000 0.000002 22.037384 7.501101 0.000000 -0.000000 0.000000 -4.569968 11.014880 -2.160881 0.000008 0.000001 -0.000038 -10.592823 -0.524824 -2.231790 76.706692 53.786736 -43.732844 -27.841438 -0.000017 0.000615 3.369535 113.078747 -5.096584 -28.328835 0.000002 0.000033 -0.000318 -0.000043 0.000006 -2.464526 -1.574213 2.682158 74.664479 -128.765800 128.216653 -3.214835 -1.872960 1.924689 196.723149 -47.020081 256.737877 -2.654414 -1.527948 1.513113 148.631104 -29.806898 194.409232 -2.018830 -1.151985 1.108068 -0.000002 -0.000003 0.000000 -9.108264 -0.517878 2.260404 168.494319 11.883666 -92.231726 -3.700040 0.000173 0.001249 32.039232 10.816570 -3.106486 -2.849977 0.000072 -0.000541 5.940892 -7.749062 0.402698 -2.772168 -0.000017 -0.000021 -0.000003 0.000001 0.000002 -9.532519 -0.000020 0.000530 168.478063 7.951724 -70.436695 -3.699855 -0.000024 0.003675 174.708302 -153.564250 178.734016 -2.949908 -0.000019 -0.002070 172.052902 -164.105950 178.887586 -2.946629 0.000014 -0.000151 0.000001 0.000000 -0.000001 -9.103628 -0.043002 -1.864574 170.185173 4.511807 -48.790565 -3.379044 -0.000089 -0.001059 161.063797 -135.368790 -187.823249 -2.889571 -0.000027 0.000341 352.156767 -25.517925 -1.766714 -2.638814 -0.000029 0.000957 -0.000001 0.000001 -0.000001 -8.076645 -0.486473 -3.805733 171.830129 -0.702498 11.327138 -3.599736 -0.000175 -0.003716 325.695412 -49.127269 -16.287942 -2.099847 -0.000038 -0.005788 350.366902 -24.874946 -2.189713 -2.115775 -0.000041 -0.003685 0.000003 -0.000000 -0.000000 4.570446 11.014691 -2.160851 -0.000018 0.000010 -0.000021 10.592463 -0.524602 -2.232324 3.530377 -71.100760 2.523353 27.841686 -0.000092 -0.000046 234.617435 -62.739980 260.521474 28.328827 -0.000012 0.000019 0.000021 -0.000091 0.000002 2.466127 -1.576170 2.681868 99.101421 127.246110 -145.134867 3.217772 -1.872028 1.916536 241.770064 50.331459 62.839755 2.655962 -1.528827 1.514597 199.360559 46.467484 101.477883 2.020880 -1.154086 1.115148 0.000003 0.000006 0.000004 9.109240 -0.518042 2.259939 -2.399222 -166.991678 -20.915559 3.700062 0.000157 -0.000481 -91.280444 -163.815271 -164.151302 2.850009 0.000047 0.000268 -152.431791 -170.305248 -177.616610 2.774846 -0.000044 -0.000022 0.000001 0.000000 0.000001 9.533543 0.000252 0.000060 161.361266 -11.513605 63.076517 3.699992 0.000099 -0.000414 56.963067 1.216357 -0.661123 2.950007 -0.000014 -0.000036 -7.741621 3.866045 0.261428 2.952860 -0.000000 0.000061 0.000001 0.000000 -0.000001 9.104670 -0.042727 -1.865073 158.181635 -10.516772 51.060394 3.149961 0.000137 -0.000122 46.430117 22.052949 350.445204 2.949972 0.000028 0.000023 -12.206550 18.932736 2.042416 2.644325 0.000002 0.000056 -0.000001 -0.000002 0.000000 8.077908 -0.486570 -3.806255 158.809958 -8.236055 45.186127 3.599927 0.000133 0.014554 224.830758 163.014609 -186.952441 2.099993 -0.000016 0.007694 172.973612 162.633498 -179.011991 2.125498 -0.000013 0.007516 0.000000 -0.000006 -0.000000 -8.207786 -6.751667 -1.599560 -0.077001 -0.000003 0.000080 -0.000002 -44.370110 0.345938 0.153719 -0.000000 -0.000000 0.000000 -44.423679 -3.043532 -0.076700 0.000000 -0.000002 -0.000006 -8.728667 10.710559 -0.000009 -0.000000 -0.000000 -0.000001 -0.000679 9.278123 0.000000 -0.000000 -0.000000 8.207792 -6.751710 -1.599556 -0.074518 -0.000003 0.000081 -0.000002 -44.370014 0.346960 0.148822 0.000002 0.000000 -0.000001 -44.423664 -3.044403 -0.074314 0.000000 -0.000002 -0.000004 -8.728671 10.710558 0.000007 -0.000000 -0.000000 0.000000 -0.000680 9.278137 -0.000000 0.000000 -0.000001 
0.000006 104.270477 1.554256 0.000010 0.000003 -0.000113 -0.000005 10.181587 0.131522 0.000001 -0.000003 0.000084 -0.000000 9.893967 -1.470711 0.000001 0.000000 -0.000000 -0.000000 9.220802 -1.370642 0.000000 -0.000000 -0.000000 0.000001 16.740433 -2.049030 0.000000 -0.000000 -0.000000 0.000000 9.617859 1.685014 0.000000 0.000000 0.000000 0.000002 22.037384 7.501101 0.000000 -0.000000 0.000000 -4.569968 11.014880 -2.160881 0.000008 0.000001 -0.000038 -10.592813 -0.524827 -2.231768 76.582697 56.488250 -45.964909 -27.841442 -0.000017 0.000624 2.797449 110.745684 -4.050192 -28.328836 0.000005 0.000027 -0.000324 -0.000042 0.000007 -2.464519 -1.574201 2.682136 76.423861 -128.471774 129.405447 -3.214777 -1.872953 1.924685 197.468788 -47.873616 256.957399 -2.654418 -1.527949 1.513090 148.029037 -30.214510 193.079489 -2.018826 -1.151979 1.108059 -0.000003 -0.000001 0.000002 -9.108261 -0.517886 2.260401 169.840522 11.555200 -97.792982 -3.700045 0.000254 0.001298 50.319848 8.146266 -3.820622 -2.849961 0.000084 -0.000557 9.917459 -10.250516 0.891716 -2.772167 -0.000003 -0.000014 -0.000003 -0.000001 -0.000001 -9.532504 -0.000033 0.000546 169.205779 8.446382 -77.370518 -3.699841 -0.000006 0.003687 174.175807 -150.997164 178.467925 -2.949905 -0.000016 -0.002076 172.817692 -162.626517 178.899948 -2.946623 0.000001 -0.000152 0.000001 0.000000 -0.000001 -9.103621 -0.043041 -1.864573 170.939281 5.107674 -58.216585 -3.379019 -0.000079 -0.001051 162.637842 -134.346720 -187.345873 -2.889568 -0.000018 0.000312 353.779757 -26.919186 -1.478183 -2.638809 -0.000001 0.000944 0.000001 -0.000002 0.000000 -8.076661 -0.486497 -3.805734 171.296404 0.388311 -3.464270 -3.599743 -0.000162 -0.003715 324.273503 -49.602039 -17.174562 -2.099845 -0.000042 -0.005784 349.758469 -25.909863 -2.425171 -2.115774 -0.000053 -0.003670 -0.000002 0.000001 0.000002 4.570446 11.014691 -2.160851 -0.000018 0.000010 -0.000021 10.592471 -0.524589 -2.232327 3.199980 -73.985012 2.411061 27.841702 -0.000067 -0.000057 236.362139 -65.542632 259.539047 28.328842 -0.000013 0.000032 0.000020 -0.000089 0.000002 2.466137 -1.576164 2.681882 100.257615 131.834303 -147.054355 3.217778 -1.872030 1.916529 241.020410 49.639865 63.073437 2.655985 -1.528810 1.514629 210.323723 46.500184 89.894305 2.020876 -1.154101 1.115154 -0.000001 0.000004 0.000003 9.109229 -0.518056 2.259941 -2.389530 -164.633049 -17.658761 3.700054 0.000121 -0.000457 -96.020220 -161.747991 -163.529209 2.850016 0.000046 0.000261 -151.655553 -170.235430 -177.528993 2.774870 -0.000027 -0.000027 -0.000000 -0.000001 -0.000002 9.533537 0.000215 0.000066 160.910391 -13.253088 69.232737 3.700012 0.000111 -0.000381 57.062805 0.411442 -0.224893 2.949988 -0.000023 -0.000047 -5.117738 4.660318 0.208172 2.952846 -0.000036 0.000065 0.000002 -0.000000 0.000002 9.104679 -0.042763 -1.865075 156.611265 -12.832615 57.039456 3.149958 0.000132 -0.000137 46.898422 20.672329 350.953807 2.949972 -0.000028 0.000021 -12.821090 20.856888 2.368805 2.644316 0.000016 0.000047 0.000001 -0.000002 0.000001 8.077922 -0.486588 -3.806261 156.435470 -11.279111 53.419552 3.599925 0.000076 0.014561 221.716492 165.815874 -185.329834 2.099991 -0.000058 0.007694 172.159658 161.524849 -178.816142 2.125500 0.000000 0.007525 0.000001 0.000003 0.000001 -8.207786 -6.751667 -1.599560 -0.077001 -0.000003 0.000080 -0.000002 -44.370110 0.345938 0.153719 -0.000000 -0.000000 0.000000 -44.423679 -3.043532 -0.076700 0.000000 -0.000002 -0.000006 -8.728667 10.710559 -0.000009 -0.000000 -0.000000 -0.000001 -0.000679 9.278123 0.000000 -0.000000 -0.000000 8.207792 -6.751710 -1.599556 -0.074518 -0.000003 0.000081 -0.000002 -44.370014 0.346960 0.148822 0.000002 0.000000 -0.000001 -44.423664 -3.044403 -0.074314 0.000000 -0.000002 -0.000004 -8.728671 10.710558 0.000007 -0.000000 -0.000000 0.000000 -0.000680 9.278137 -0.000000 0.000000 -0.000001 
0.000006 104.270477 1.554256 0.000010 0.000003 -0.000113 -0.000005 10.181587 0.131522 0.000001 -0.000003 0.000084 -0.000000 9.893967 -1.470711 0.000001 0.000000 -0.000000 -0.000000 9.220802 -1.370642 0.000000 -0.000000 -0.000000 0.000001 16.740433 -2.049030 0.000000 -0.000000 -0.000000 0.000000 9.617859 1.685014 0.000000 0.000000 0.000000 0.000002 22.037384 7.501101 0.000000 -0.000000 0.000000 -4.569968 11.014880 -2.160881 0.000008 0.000001 -0.000038 -10.592817 -0.524836 -2.231780 76.448866 55.976791 -45.426120 -27.841434 -0.000005 0.000608 2.455217 111.070125 -3.576486 -28.328827 0.000008 0.000021 -0.000318 -0.000044 0.000003 -2.464531 -1.574212 2.682143 76.082365 -130.855373 130.160852 -3.214827 -1.872986 1.924708 201.276960 -45.928576 262.523566 -2.654435 -1.527962 1.513114 150.677552 -30.123839 198.229548 -2.018835 -1.151982 1.108070 0.000001 -0.000002 0.000005 -9.108231 -0.517896 2.260399 170.219925 11.910563 -101.677488 -3.700035 0.000177 0.001246 30.923709 6.932765 -1.913151 -2.849980 0.000060 -0.000553 4.072873 -7.855763 0.279748 -2.772161 -0.000011 -0.000022 0.000000 0.000001 0.000002 -9.532504 -0.000042 0.000538 169.362204 8.574326 -79.037836 -3.699868 0.000010 0.003663 181.923250 -155.355767 180.404011 -2.949908 -0.000037 -0.002073 171.772400 -164.082044 178.846482 -2.946623 0.000014 -0.000161 -0.000001 -0.000000 -0.000001 -9.103619 -0.043031 -1.864573 170.590272 5.115648 -56.468446 -3.379023 -0.000047 -0.001067 167.686690 -134.747843 -185.140829 -2.889567 -0.000018 0.000323 352.305939 -25.880384 -1.758342 -2.638803 -0.000020 0.000959 0.000001 -0.000000 0.000001 -8.076654 -0.486511 -3.805737 172.121628 -0.015177 1.947462 -3.599729 -0.000158 -0.003726 327.048391 -50.339051 -16.052145 -2.099855 -0.000035 -0.005796 349.432177 -24.854532 -2.397009 -2.115777 -0.000053 -0.003681 0.000001 -0.000003 0.000001 4.570446 11.014691 -2.160851 -0.000018 0.000010 -0.000021 10.592476 -0.524593 -2.232331 8.633571 -74.152359 6.529266 27.841728 -0.000095 -0.000078 235.657591 -68.980765 255.073824 28.328835 -0.000059 0.000014 0.000024 -0.000090 0.000002 2.466149 -1.576185 2.681871 98.581937 135.105254 -146.779522 3.217800 -1.872006 1.916540 237.749760 48.049855 64.850310 2.655987 -1.528788 1.514615 204.049374 45.236193 95.492110 2.020890 -1.154055 1.115150 0.000002 0.000003 0.000006 9.109250 -0.518042 2.259943 -2.763828 -164.608187 -20.327867 3.700061 0.000153 -0.000455 -95.972429 -162.125537 -163.857331 2.850017 0.000021 0.000300 -157.468276 -169.254984 -177.853864 2.774882 -0.000048 -0.000026 -0.000000 0.000001 -0.000001 9.533548 0.000193 0.000069 162.489545 -14.343971 78.450487 3.700029 0.000088 -0.000368 56.096289 -0.656572 0.348610 2.950008 -0.000012 -0.000041 -7.229415 3.939024 0.248696 2.952882 -0.000003 0.000069 -0.000000 0.000000 -0.000000 9.104682 -0.042844 -1.865067 159.201833 -14.460501 69.321967 3.149967 0.000102 -0.000140 45.714248 18.371069 352.201327 2.949968 -0.000025 0.000029 -12.619531 19.083866 2.129233 2.644317 0.000015 0.000058 -0.000003 0.000001 -0.000003 8.077937 -0.486670 -3.806255 157.698700 -13.880701 66.216321 3.599922 0.000099 0.014571 221.980943 170.360545 -183.585622 2.099990 0.000026 0.007709 169.888374 164.798326 -178.736884 2.125499 -0.000030 0.007514 -0.000003 -0.000002 0.000002 -8.207786 -6.751667 -1.599560 -0.077001 -0.000003 0.000080 -0.000002 -44.370110 0.345938 0.153719 -0.000000 -0.000000 0.000000 -44.423679 -3.043532 -0.076700 0.000000 -0.000002 -0.000006 -8.728667 10.710559 -0.000009 -0.000000 -0.000000 -0.000001 -0.000679 9.278123 0.000000 -0.000000 -0.000000 8.207792 -6.751710 -1.599556 -0.074518 -0.000003 0.000081 -0.000002 -44.370014 0.346960 0.148822 0.000002 0.000000 -0.000001 -44.423664 -3.044403 -0.074314 0.000000 -0.000002 -0.000004 -8.728671 10.710558 0.000007 -0.000000 -0.000000 0.000000 -0.000680 9.278137 -0.000000 0.000000 -0.000001 
